# xmcd
#
# Track frame offsets:
#	150
#	8878
#	31610
#	46917
#	66499
#	79181
#	92837
#	107769
#	117601
#	138683
#	150765
#	171097
#	185504
#	202236
#	219868
#	243275
#	259782
#	274714
#	292121
#
# Disc length: 4068 seconds
#
# Revision: 0
# Processed by: cddbd v1.5.2PL0 Copyright (c) Steve Scherf et al.
# Submitted via: audiograbber 1.83.01
#
DISCID=120fe213
DTITLE=Michael Pewny - Big Jay McNeely - Live in Vienna Reigen 2013
DYEAR=2014
DGENRE=Boogie Woogie
TTITLE0=3-D
TTITLE1=Big Fat Mama
TTITLE2=Viena City Stomp
TTITLE3=All That Wine Is Gone
TTITLE4=Tuff
TTITLE5=Get Up Let's Boogie
TTITLE6=Steady Rollin' Man
TTITLE7=The Deacon's Hop
TTITLE8=Young Girl Blues
TTITLE9=Kansas City Walk
TTITLE10=Let The Good Times Roll
TTITLE11=I Can't Stop Loving You
TTITLE12=Medley: Mule Milk - Night Train - All Night Long
TTITLE13=Honky Tonk
TTITLE14=There's Something On Your Mind
TTITLE15=Hucklebuck
TTITLE16=Pretty Girl Everywhere
TTITLE17=The Honeydripper
TTITLE18=Insect Ball
EXTD=
EXTT0=
EXTT1=
EXTT2=
EXTT3=
EXTT4=
EXTT5=
EXTT6=
EXTT7=
EXTT8=
EXTT9=
EXTT10=
EXTT11=
EXTT12=
EXTT13=
EXTT14=
EXTT15=
EXTT16=
EXTT17=
EXTT18=
PLAYORDER=
